<svg width="42" height="42" viewBox="0 0 42 42" fill="none" xmlns="http://www.w3.org/2000/svg">
<g filter="url(#filter0_d_68_168)">
<rect x="5" y="5" width="32" height="32" rx="4" fill="white"/>
<path fill-rule="evenodd" clip-rule="evenodd" d="M12.5426 7.1333C9.40389 7.1333 7.30414 10.3431 8.57838 13.1934L10.0392 16.4609V24.8908C10.0392 26.8143 10.4879 28.5434 11.4013 30.059L11.4021 30.0605C12.3132 31.5632 13.5936 32.7429 15.2261 33.5986L15.2286 33.5999C16.8711 34.4517 18.772 34.8666 20.9122 34.8666C23.0603 34.8666 24.9655 34.4519 26.6084 33.5999L26.6108 33.5986C28.2434 32.7429 29.5238 31.5632 30.4348 30.0605L30.4357 30.059C31.349 28.5434 31.7978 26.8143 31.7978 24.8908V16.4734L33.3526 13.3231C34.7619 10.4677 32.6701 7.1333 29.4695 7.1333C26.501 7.1333 24.4148 10.0368 25.3789 12.8266L26.6244 16.4303C26.5986 18.2633 25.8868 19.6002 24.8591 20.4902C23.7997 21.4078 22.3672 21.8812 20.9122 21.8812C19.4572 21.8812 18.0247 21.4078 16.9653 20.4902C15.9406 19.6028 15.2299 18.271 15.2003 16.4462L16.57 13.0448C17.7102 10.2135 15.6117 7.1333 12.5426 7.1333ZM11.3079 24.8908V16.9575H13.9306V24.5729C13.9306 25.8447 14.2079 26.9994 14.7787 28.0197L14.7809 28.0236C15.3604 29.0427 16.1805 29.8452 17.2282 30.4256L17.232 30.4277C18.2915 31.0051 19.5257 31.281 20.9122 31.281C22.3063 31.281 23.5449 31.0054 24.605 30.4277L24.6067 30.4267C25.6639 29.8462 26.4827 29.0419 27.0466 28.0179C27.6168 26.998 27.8937 25.8439 27.8937 24.5729V16.9575H30.5291V24.8908C30.5291 26.612 30.13 28.1123 29.3476 29.4108C28.563 30.7047 27.4595 31.7283 26.0201 32.483C24.5904 33.2242 22.8942 33.606 20.9122 33.606C18.939 33.606 17.247 33.2244 15.8169 32.483C14.3775 31.7283 13.274 30.7047 12.4894 29.4108C11.707 28.1123 11.3079 26.612 11.3079 24.8908Z" fill="#FF6F61"/>
</g>
<defs>
<filter id="filter0_d_68_168" x="0" y="0" width="42" height="42" filterUnits="userSpaceOnUse" color-interpolation-filters="sRGB">
<feFlood flood-opacity="0" result="BackgroundImageFix"/>
<feColorMatrix in="SourceAlpha" type="matrix" values="0 0 0 0 0 0 0 0 0 0 0 0 0 0 0 0 0 0 127 0" result="hardAlpha"/>
<feOffset/>
<feGaussianBlur stdDeviation="2.5"/>
<feColorMatrix type="matrix" values="0 0 0 0 0 0 0 0 0 0 0 0 0 0 0 0 0 0 0.4 0"/>
<feBlend mode="normal" in2="BackgroundImageFix" result="effect1_dropShadow_68_168"/>
<feBlend mode="normal" in="SourceGraphic" in2="effect1_dropShadow_68_168" result="shape"/>
</filter>
</defs>
</svg>
