<svg width="60" height="60" viewBox="0 0 60 60" fill="none" xmlns="http://www.w3.org/2000/svg">
<path fill-rule="evenodd" clip-rule="evenodd" d="M14.1425 4C8.25739 4 4.32035 10.0185 6.70956 15.3626L9.44856 21.4892V37.2953C9.44856 40.9018 10.2899 44.144 12.0024 46.9857L12.0041 46.9884C13.7123 49.806 16.113 52.0181 19.1741 53.6225L19.1787 53.6249C22.2584 55.222 25.8227 56 29.8354 56C33.8631 56 37.4354 55.2224 40.5158 53.6249L40.5204 53.6225C43.5815 52.0181 45.9822 49.806 47.6904 46.9884L47.6921 46.9857C49.4046 44.144 50.2459 40.9018 50.2459 37.2953V21.5127L53.1613 15.6059C55.8037 10.2521 51.8815 4 45.8804 4C40.3144 4 36.4029 9.44412 38.2106 14.6749L40.5458 21.4319C40.4975 24.8687 39.1628 27.3755 37.2359 29.0443C35.2495 30.7647 32.5635 31.6522 29.8354 31.6522C27.1074 31.6522 24.4214 30.7647 22.435 29.0443C20.5137 27.3803 19.1811 24.8832 19.1256 21.4617L21.6938 15.084C23.8316 9.77532 19.897 4 14.1425 4ZM11.8273 37.2953V22.4204H16.745V36.6992C16.745 39.0839 17.265 41.2489 18.3352 43.1621L18.3393 43.1692C19.4258 45.0801 20.9635 46.5848 22.928 47.6731L22.9351 47.677C24.9216 48.7597 27.2358 49.2769 29.8354 49.2769C32.4494 49.2769 34.7719 48.7602 36.7594 47.677L36.7627 47.6752C38.7449 46.5867 40.2802 45.0786 41.3376 43.1587C42.4066 41.2463 42.9259 39.0825 42.9259 36.6992V22.4204H47.8672V37.2953C47.8672 40.5225 47.1188 43.3356 45.6519 45.7703C44.1806 48.1963 42.1116 50.1157 39.4127 51.5307C36.732 52.9204 33.5518 53.6364 29.8354 53.6364C26.1357 53.6364 22.9631 52.9207 20.2818 51.5307C17.5829 50.1157 15.5139 48.1963 14.0426 45.7703C12.5757 43.3356 11.8273 40.5225 11.8273 37.2953Z" fill="#FF6F61"/>
</svg>
