<svg width="136" height="42" viewBox="0 0 136 42" fill="none" xmlns="http://www.w3.org/2000/svg">
<path fill-rule="evenodd" clip-rule="evenodd" d="M8.9569 3.23328C5.22967 3.23328 2.73621 7.34592 4.24938 10.9977L5.98407 15.1842V25.9851C5.98407 28.4495 6.51692 30.665 7.60151 32.6068L7.60258 32.6087C8.68444 34.534 10.2049 36.0456 12.1436 37.142L12.1465 37.1436C14.097 38.235 16.3544 38.7666 18.8957 38.7666C21.4466 38.7666 23.7091 38.2353 25.66 37.1436L25.6629 37.142C27.6016 36.0456 29.122 34.534 30.2039 32.6087L30.205 32.6068C31.2896 30.665 31.8224 28.4495 31.8224 25.9851V15.2003L33.6688 11.164C35.3423 7.50554 32.8583 3.23328 29.0576 3.23328C25.5324 3.23328 23.0552 6.95343 24.2 10.5278L25.679 15.1451C25.6484 17.4936 24.8031 19.2065 23.5827 20.3469C22.3247 21.5225 20.6235 22.1289 18.8957 22.1289C17.168 22.1289 15.4669 21.5225 14.2088 20.3469C12.992 19.2098 12.148 17.5035 12.1129 15.1654L13.7394 10.8073C15.0933 7.17974 12.6014 3.23328 8.9569 3.23328ZM7.49061 25.9851V15.8206H10.6052V25.5777C10.6052 27.2073 10.9345 28.6867 11.6123 29.994L11.6149 29.9989C12.303 31.3047 13.2769 32.3329 14.5211 33.0766L14.5256 33.0792C15.7837 33.8191 17.2493 34.1725 18.8957 34.1725C20.5513 34.1725 22.0222 33.8194 23.2809 33.0792L23.283 33.078C24.5384 32.3342 25.5108 31.3037 26.1805 29.9917C26.8575 28.6849 27.1864 27.2063 27.1864 25.5777V15.8206H30.3159V25.9851C30.3159 28.1903 29.8419 30.1126 28.9129 31.7763C27.981 33.4341 26.6707 34.7457 24.9614 35.7126C23.2636 36.6622 21.2495 37.1515 18.8957 37.1515C16.5526 37.1515 14.5433 36.6624 12.8451 35.7126C11.1358 34.7457 9.82546 33.4341 8.89363 31.7763C7.9646 30.1126 7.49061 28.1903 7.49061 25.9851Z" fill="#FF6F61"/>
<path d="M126.846 22.0652V29.891H123.698V16.535H126.707V18.8045H126.863C127.17 18.0567 127.66 17.4625 128.333 17.0219C129.011 16.5814 129.848 16.3611 130.846 16.3611C131.767 16.3611 132.57 16.5582 133.254 16.9524C133.944 17.3466 134.477 17.9175 134.854 18.6653C135.237 19.4131 135.425 20.3203 135.419 21.387V29.891H132.272V21.8739C132.272 20.9812 132.04 20.2827 131.576 19.7783C131.118 19.274 130.483 19.0218 129.672 19.0218C129.121 19.0218 128.631 19.1436 128.202 19.387C127.779 19.6247 127.446 19.9696 127.202 20.4218C126.965 20.8739 126.846 21.4217 126.846 22.0652Z" fill="#21222C"/>
<path d="M115.219 30.1518C113.879 30.1518 112.723 29.8736 111.749 29.3171C110.781 28.7548 110.036 27.9606 109.514 26.9346C108.993 25.9027 108.732 24.6883 108.732 23.2912C108.732 21.9174 108.993 20.7116 109.514 19.674C110.042 18.6306 110.778 17.819 111.723 17.2393C112.668 16.6538 113.778 16.3611 115.053 16.3611C115.877 16.3611 116.653 16.4944 117.384 16.7611C118.12 17.0219 118.769 17.4277 119.331 17.9784C119.9 18.5291 120.346 19.2305 120.671 20.0827C120.995 20.929 121.157 21.9377 121.157 23.1086V24.0738H110.21V21.9522H118.14C118.134 21.3493 118.004 20.8131 117.749 20.3435C117.494 19.8682 117.137 19.4943 116.679 19.2218C116.227 18.9494 115.7 18.8132 115.097 18.8132C114.453 18.8132 113.888 18.9697 113.401 19.2827C112.914 19.5899 112.535 19.9957 112.262 20.5C111.996 20.9986 111.859 21.5464 111.853 22.1435V23.9956C111.853 24.7723 111.996 25.439 112.28 25.9955C112.564 26.5462 112.961 26.9693 113.471 27.265C113.981 27.5548 114.578 27.6998 115.262 27.6998C115.72 27.6998 116.134 27.636 116.505 27.5085C116.876 27.3751 117.198 27.1809 117.471 26.9259C117.743 26.6708 117.949 26.3549 118.088 25.9781L121.027 26.3085C120.842 27.0853 120.488 27.7635 119.966 28.3432C119.45 28.9171 118.789 29.3635 117.984 29.6823C117.178 29.9953 116.256 30.1518 115.219 30.1518Z" fill="#21222C"/>
<path d="M103.013 17.7697C102.868 17.3001 102.668 16.8799 102.413 16.5089C102.164 16.1321 101.863 15.8103 101.509 15.5437C101.161 15.277 100.761 15.077 100.309 14.9437C99.8569 14.8046 99.3642 14.735 98.8309 14.735C97.8744 14.735 97.0222 14.9756 96.2744 15.4567C95.5266 15.9379 94.9383 16.6451 94.5093 17.5784C94.0861 18.5059 93.8745 19.6363 93.8745 20.9695C93.8745 22.3144 94.0861 23.4535 94.5093 24.3868C94.9325 25.3201 95.5209 26.0302 96.2744 26.5171C97.028 26.9983 97.9034 27.2389 98.9004 27.2389C99.8047 27.2389 100.587 27.0649 101.248 26.7171C101.915 26.3693 102.428 25.8766 102.787 25.2389C103.147 24.5955 103.326 23.8419 103.326 22.9782L104.057 23.0912H99.2221V20.5696H106.448V22.7086C106.448 24.2332 106.123 25.552 105.474 26.665C104.825 27.778 103.932 28.6359 102.796 29.2388C101.66 29.8358 100.355 30.1344 98.883 30.1344C97.2425 30.1344 95.802 29.7663 94.5615 29.0301C93.3267 28.2881 92.3616 27.236 91.6659 25.8737C90.9761 24.5056 90.6312 22.8825 90.6312 21.0043C90.6312 19.5667 90.8341 18.2827 91.2399 17.1523C91.6514 16.0219 92.2253 15.0625 92.9615 14.2742C93.6977 13.48 94.5615 12.8771 95.5527 12.4655C96.544 12.0482 97.6222 11.8395 98.7874 11.8395C99.7728 11.8395 100.692 11.9844 101.544 12.2742C102.396 12.5583 103.152 12.9641 103.813 13.4916C104.48 14.0191 105.028 14.6452 105.457 15.3698C105.886 16.0944 106.167 16.8943 106.3 17.7697H103.013Z" fill="#21222C"/>
<path d="M79.8671 16.535L82.5626 21.4653L85.3017 16.535H88.632L84.606 23.213L88.7015 29.891H85.3886L82.5626 25.0825L79.7628 29.891H76.4238L80.4932 23.213L76.5281 16.535H79.8671Z" fill="#21222C"/>
<path d="M74.0615 12.083V29.891H70.8355V12.083H74.0615Z" fill="#21222C"/>
<path d="M64.2256 12.083H67.4516V23.7173C67.4516 24.9926 67.1502 26.1143 66.5473 27.0824C65.9502 28.0505 65.1097 28.807 64.0256 29.3519C62.9416 29.891 61.675 30.1605 60.2258 30.1605C58.7708 30.1605 57.5013 29.891 56.4173 29.3519C55.3332 28.807 54.4927 28.0505 53.8956 27.0824C53.2985 26.1143 53 24.9926 53 23.7173V12.083H56.226V23.4478C56.226 24.1898 56.3883 24.8506 56.7129 25.4303C57.0433 26.01 57.5071 26.465 58.1041 26.7955C58.7012 27.1201 59.4084 27.2824 60.2258 27.2824C61.0432 27.2824 61.7504 27.1201 62.3474 26.7955C62.9503 26.465 63.4141 26.01 63.7387 25.4303C64.0633 24.8506 64.2256 24.1898 64.2256 23.4478V12.083Z" fill="#21222C"/>
</svg>
