<svg width="24" height="24" viewBox="0 0 24 24" fill="none" xmlns="http://www.w3.org/2000/svg">
<path d="M11.9906 1.78828C6.19453 1.78594 1.5 6.47813 1.5 12.2695C1.5 16.8492 4.43672 20.7422 8.52656 22.1719C9.07734 22.3102 8.99297 21.9188 8.99297 21.6516V19.8352C5.8125 20.2078 5.68359 18.1031 5.47031 17.7516C5.03906 17.0156 4.01953 16.8281 4.32422 16.4766C5.04844 16.1039 5.78672 16.5703 6.64219 17.8336C7.26094 18.75 8.46797 18.5953 9.07969 18.443C9.21328 17.8922 9.49922 17.4 9.89297 17.018C6.59766 16.4273 5.22422 14.4164 5.22422 12.0258C5.22422 10.8656 5.60625 9.79922 6.35625 8.93906C5.87812 7.52109 6.40078 6.30703 6.47109 6.12656C7.83281 6.00469 9.24844 7.10156 9.35859 7.18828C10.132 6.97969 11.0156 6.86953 12.0047 6.86953C12.9984 6.86953 13.8844 6.98438 14.6648 7.19531C14.9297 6.99375 16.2422 6.05156 17.5078 6.16641C17.5758 6.34688 18.0867 7.53281 17.6367 8.93203C18.3961 9.79453 18.7828 10.8703 18.7828 12.0328C18.7828 14.4281 17.4 16.4414 14.0953 17.0227C14.3784 17.301 14.6031 17.633 14.7564 17.9992C14.9098 18.3654 14.9886 18.7585 14.9883 19.1555V21.7922C15.007 22.0031 14.9883 22.2117 15.3398 22.2117C19.4906 20.8125 22.4789 16.8914 22.4789 12.2719C22.4789 6.47813 17.782 1.78828 11.9906 1.78828Z" fill="#16161D"/>
</svg>
